<mxfile host="65bd71144e">
    <diagram id="hVnh0JukFaTbL_K_9EOu" name="Page-1">
        <mxGraphModel dx="1726" dy="1077" grid="1" gridSize="10" guides="1" tooltips="1" connect="1" arrows="1" fold="1" page="1" pageScale="1" pageWidth="850" pageHeight="1100" math="0" shadow="0">
            <root>
                <mxCell id="0"/>
                <mxCell id="1" parent="0"/>
                <mxCell id="2" value="&lt;font style=&quot;font-size: 16px;&quot;&gt;&lt;b&gt;SmartTrip&lt;/b&gt;&lt;/font&gt;" style="rounded=0;whiteSpace=wrap;html=1;" vertex="1" parent="1">
                    <mxGeometry x="320" y="40" width="160" height="80" as="geometry"/>
                </mxCell>
                <mxCell id="4" value="10. &lt;strong data-end=&quot;2619&quot; data-start=&quot;2591&quot;&gt;Image &amp;amp; Street View Tool&lt;/strong&gt;&lt;div&gt;&lt;strong data-end=&quot;2619&quot; data-start=&quot;2591&quot;&gt;&lt;br&gt;&lt;/strong&gt;&lt;/div&gt;" style="text;html=1;align=center;verticalAlign=middle;resizable=0;points=[];autosize=1;strokeColor=none;fillColor=none;" vertex="1" parent="1">
                    <mxGeometry x="255" y="353" width="190" height="40" as="geometry"/>
                </mxCell>
            </root>
        </mxGraphModel>
    </diagram>
</mxfile>